<svg width="41" height="40" viewBox="0 0 41 40" fill="none" xmlns="http://www.w3.org/2000/svg">
<path fill-rule="evenodd" clip-rule="evenodd" d="M22.0799 39.9647C32.5586 39.3459 40.8866 30.6319 40.8866 19.9999C40.8866 8.96741 31.9192 0 20.8867 0C9.85413 0 0.886719 8.96741 0.886719 19.9999C0.886719 30.8045 9.48743 39.6285 20.2056 39.9884C20.4326 39.9961 20.6602 40 20.8882 40C21.287 40 21.6844 39.9882 22.0799 39.9647ZM34.0364 31.0891C36.568 28.0919 38.0959 24.2208 38.0959 19.9999C38.0959 10.5116 30.375 2.79069 20.8867 2.79069C11.3983 2.79069 3.67741 10.5116 3.67741 19.9999C3.67741 24.2209 5.20535 28.0921 7.73712 31.0893C8.4037 29.8431 9.46176 28.7092 10.8603 27.7768C16.4045 24.0931 25.3905 24.0931 30.9161 27.7768C32.3126 28.7192 33.3696 29.8487 34.0364 31.0891ZM20.3355 37.2005C20.5185 37.2063 20.7022 37.2092 20.8867 37.2092C21.1908 37.2092 21.493 37.2012 21.7933 37.1856C25.5038 36.9907 29.0453 35.6015 31.9021 33.2093C31.5672 32.0744 30.6742 30.9768 29.3533 30.0838C24.7766 27.0326 17.0185 27.0326 12.4045 30.0838C11.0836 30.9768 10.2092 32.0744 9.87429 33.2093C12.8215 35.6771 16.4972 37.0776 20.3355 37.2005ZM21.1109 22.8465H20.9807H20.7946C16.5713 22.7163 13.4085 19.4233 13.4085 15.3674C13.4085 11.2372 16.776 7.86978 20.9062 7.86978C25.0365 7.86978 28.4039 11.2372 28.4039 15.3674C28.3853 19.4419 25.2039 22.7163 21.1667 22.8465H21.1109ZM20.8876 10.6419C18.283 10.6419 16.1806 12.7628 16.1806 15.3488C16.1806 17.8977 18.1714 19.9628 20.7016 20.0558C20.7574 20.0372 20.9434 20.0372 21.1295 20.0558C23.6225 19.9256 25.576 17.8791 25.5946 15.3488C25.5946 12.7628 23.4923 10.6419 20.8876 10.6419Z" fill="#573C2F"/>
</svg>
