<svg width="41" height="40" viewBox="0 0 41 40" fill="none" xmlns="http://www.w3.org/2000/svg">
<path fill-rule="evenodd" clip-rule="evenodd" d="M18.8469 0.0556545C19.4601 0.019109 20.094 0 20.7022 0C25.9917 0 29.8169 1.38435 32.0712 4.11384C34.951 7.59927 35.1131 11.9255 34.7412 14.9408C33.7494 23.0002 29.5945 31.4031 23.7795 37.2525C24.5568 37.2605 25.3327 37.266 26.106 37.266C27.0588 37.266 28.0132 37.2596 28.966 37.2436C30.0454 37.2436 30.5954 37.9156 30.6014 38.5796C30.6085 39.2604 30.0541 39.96 28.9825 39.9778C28.0232 39.9938 27.0649 40 26.1066 40C22.7913 40 19.4257 39.9159 16.169 39.8345L16.1117 39.8331L16.104 39.8329C14.9597 39.8041 13.8159 39.7752 12.6714 39.7498C11.599 39.7267 11.0466 39.0236 11.0553 38.3411C11.0633 37.6825 11.611 37.0158 12.641 37.0158H12.6943C13.8426 37.0416 14.9903 37.0702 16.1381 37.0991C16.8328 37.1169 17.5349 37.1342 18.2384 37.1511C12.7906 31.0895 8.70099 23.9882 6.90305 17.3784C6.12085 14.5034 5.28268 10.2482 7.0298 6.50211C8.81059 2.68315 12.8186 0.267018 17.507 0.178691C17.6974 0.0965635 17.8963 0.0556545 18.0988 0.0556545H18.8469ZM21.0211 35.9229C26.4416 30.752 30.4994 23.0918 31.6512 15.8184C32.3529 11.3869 31.7676 8.09046 29.9126 6.02038C27.967 3.84945 24.9577 2.79462 20.711 2.79462C20.3115 2.79462 19.9123 2.8032 19.5149 2.81924C19.4127 2.83975 19.3157 2.84975 19.2208 2.84975H18.7189C18.5352 2.92853 18.3364 2.96831 18.1269 2.96831C17.9975 2.96542 17.9096 2.96455 17.8212 2.96455C13.3552 2.96455 9.78299 5.68545 9.13349 9.58056C8.65923 12.4277 9.20651 15.744 10.8059 19.7205C13.2013 25.6755 16.7287 31.2682 21.0211 35.9229ZM20.232 4.41234C20.2923 4.40945 20.3837 4.40858 20.4754 4.40858C23.5797 4.40858 26.6945 5.60985 28.4106 7.469C29.666 8.8288 30.1888 10.5111 29.9235 12.3342C29.3945 15.9683 25.4037 19.0382 21.2089 19.0382C21.0202 19.0382 20.8309 19.0318 20.6432 19.0185C16.3915 18.7229 12.0592 15.3626 12.387 10.8328C12.6725 6.8765 15.8588 4.24681 20.232 4.41234ZM20.6816 16.0157C23.3469 16.0157 26.4154 14.5092 26.7696 12.0759C26.9223 11.0219 26.6489 10.1059 25.9553 9.35494C24.6319 7.92136 22.1541 7.4129 20.4344 7.4129C20.3466 7.4129 20.2592 7.4143 20.1729 7.4165C20.1573 7.41694 20.1408 7.4165 20.1246 7.41561C20.0555 7.41387 19.9972 7.41343 19.9386 7.41343C16.85 7.41343 15.7451 9.351 15.7413 11.1641C15.7359 13.5391 17.5819 16.003 20.6816 16.0157Z" fill="#573C2F"/>
</svg>
