<svg width="42" height="40" viewBox="0 0 42 40" fill="none" xmlns="http://www.w3.org/2000/svg">
<g clip-path="url(#clip0_174_1998)">
<path d="M40.387 5.98507C38.2956 4.30078 36.37 2.47039 34.3917 0.682952C33.8516 0.193126 33.1979 0.210326 32.6925 0.476712C32.248 0.708724 31.7774 1.38762 31.4464 1.75712C28.4924 4.97964 25.4597 8.14201 22.0788 10.995C21.6952 11.313 21.1113 11.27 20.789 10.9005C17.9307 7.64359 15.4212 4.15468 12.9811 0.622806C12.65 0.150152 12.1533 -0.0302869 11.674 0.00408638C11.1773 0.0384597 10.6632 0.313446 10.4889 0.399365C10.3843 0.442339 10.2797 0.502486 10.1839 0.579833C8.05764 2.15243 5.85295 3.63908 3.63084 5.10853C3.59599 5.13434 3.56984 5.15151 3.53499 5.17728C3.48273 5.22025 3.047 5.43509 2.7943 5.85617C2.51545 6.31163 2.4893 6.90457 2.95985 7.41157C6.58493 11.2872 10.0009 15.3174 13.6084 19.2016C13.9484 19.5625 13.9047 20.1125 13.53 20.4306C9.38218 23.9453 5.97495 28.1215 1.51332 31.3354C1.25188 31.5246 1.10374 31.7395 1.03404 31.9629C0.912038 32.3841 1.14733 32.951 1.27803 33.1832C1.34774 33.3121 1.45232 33.4324 1.59173 33.5441C3.64828 35.2628 5.53925 37.1189 7.4738 38.9407C8.00535 39.439 8.6589 39.439 9.16433 39.1813C9.60876 38.9578 10.0968 38.2875 10.4366 37.9266C13.4516 34.7385 16.5452 31.6363 19.996 28.8347C20.3795 28.517 20.9634 28.577 21.2858 28.9553C24.0828 32.2635 26.5228 35.7954 28.8843 39.3619C29.207 39.843 29.6949 40.0233 30.1741 39.9976C30.6709 39.9719 31.1849 39.7056 31.368 39.6282C31.4725 39.5853 31.5771 39.525 31.6731 39.4562C33.8254 37.9009 36.0648 36.4571 38.3131 35.0222C38.3479 34.9962 38.3741 34.9791 38.4091 34.9533C38.4614 34.9105 38.897 34.7042 39.1585 34.2916C39.4461 33.8361 39.4808 33.2433 39.0191 32.7364C35.4373 28.7576 32.065 24.6242 28.4924 20.6454C28.1611 20.276 28.2048 19.7174 28.5795 19.3908C32.7273 15.79 36.0734 11.5106 40.5092 8.18499C40.7706 7.99592 40.9186 7.77248 40.9709 7.55767C41.0841 7.13659 40.8402 6.56941 40.7008 6.3374C40.631 6.21708 40.5264 6.09679 40.387 5.98507Z" fill="#573C2F"/>
</g>
<defs>
<clipPath id="clip0_174_1998">
<rect width="40" height="40" fill="white" transform="translate(1.11328)"/>
</clipPath>
</defs>
</svg>
