<svg width="45" height="43" viewBox="0 0 45 43" fill="none" xmlns="http://www.w3.org/2000/svg">
<path d="M27.7068 42.4368C39.2918 39.7263 46.5118 28.0961 43.8013 16.5116C43.1897 13.8975 41.6159 10.7359 39.5908 8.05467C34.5929 1.4364 26.6061 -1.34422 18.2269 0.616211C14.4468 1.50068 10.8578 3.33407 7.84741 5.91827C2.08843 10.8625 -0.320621 18.9945 1.71043 26.6361C2.6764 30.2705 4.69888 33.577 7.56003 36.1963C13.9716 42.0675 20.562 44.1085 27.7068 42.4368ZM9.69401 8.0694C12.3599 5.78016 15.534 4.15782 18.8724 3.37674C26.1266 1.6795 33.0263 4.06703 37.3282 9.76334C39.0999 12.1094 40.5224 14.9428 41.0406 17.1576C43.3949 27.2202 37.1239 37.322 27.0604 39.6765C20.8955 41.1189 15.1434 39.2964 9.4743 34.106C7.01401 31.8526 5.27695 29.0181 4.45025 25.9083C2.72435 19.4127 4.83155 12.2442 9.69401 8.0694Z" fill="white"/>
<path d="M33.8759 30.2481C31.7537 31.2571 29.7534 32.0668 27.9967 32.4777C24.6429 33.2624 21.7384 33.0879 19.4431 31.9168C17.9382 31.244 16.3656 29.5621 15.226 28.2913C15.0284 28.1668 14.8308 28.0422 14.5114 28.1169C13.5532 28.3411 12.595 28.5653 11.8343 28.914C11.8343 28.914 11.8343 28.914 11.6746 28.9514C10.7164 29.1756 10.3294 28.2412 10.2915 28.0793C10.1399 27.4315 10.2698 26.547 11.1902 26.1609C11.6694 26.0488 11.9887 25.9741 12.4678 25.8619L12.7872 25.7872C12.9091 25.5879 13.0688 25.5505 13.1905 25.3513C13.3124 25.1519 13.2745 24.99 13.2366 24.828C13.085 24.1802 13.085 24.1802 12.8956 23.3705C12.8956 23.3705 12.8956 23.3705 12.698 23.2458C12.6601 23.0839 12.3028 22.9967 12.1431 23.0341C11.5043 23.1835 10.8654 23.333 10.4242 23.6071C10.4242 23.6071 10.4242 23.6071 10.2645 23.6444C9.30628 23.8685 8.91927 22.9343 8.88141 22.7723C8.72982 22.1244 8.85972 21.24 9.78007 20.8538C10.5786 20.667 11.4989 20.2809 12.6168 20.0193C12.9363 19.9446 13.2178 19.7079 13.142 19.384C13.5236 17.4157 14.2411 14.0023 16.4932 12.1089C18.0604 10.888 19.901 10.1158 22.2966 9.55532C23.734 9.21902 25.2092 9.04466 27.2014 8.92021C27.5207 8.84548 27.7562 9.13206 27.9538 9.2566C28.1893 9.54318 28.4627 9.99162 28.3788 10.3529C28.4085 11.2001 27.6479 11.5488 27.1688 11.6609C27.0091 11.6982 27.0091 11.6982 26.8494 11.7356C25.5339 11.8726 24.0587 12.0469 22.6214 12.3833C20.8646 12.7943 19.5031 13.4544 18.4989 14.2018C17.6543 14.9119 16.8855 15.9459 16.4741 17.067C16.1926 17.3038 15.773 19.1101 16.0924 19.0354L18.3282 18.5122C19.2865 18.288 19.7953 19.023 19.909 19.5089C20.0226 19.9947 19.9306 21.0412 18.9724 21.2654C18.3336 21.4149 17.6947 21.5643 17.056 21.7138L16.2575 21.9006C15.938 21.9753 15.5347 22.4114 15.5726 22.5733C15.7621 23.3831 15.7621 23.3831 15.9515 24.1928C16.0273 24.5167 16.4225 24.7659 16.7419 24.6911C17.8598 24.4296 19.1375 24.1307 20.2554 23.8691C21.2136 23.6449 21.7603 24.5419 21.874 25.0277C22.0256 25.6755 21.8577 26.3981 20.8995 26.6223C20.4204 26.7344 19.1428 27.0333 18.8234 27.108L19.3025 26.9959L18.6637 27.1454C18.3064 27.0581 18.5419 27.3447 18.42 27.5441C18.3361 27.9053 19.2023 28.7275 19.3999 28.8522C19.7951 29.1013 20.1903 29.3505 20.7073 29.4003C22.889 30.0856 25.0787 30.0857 27.4743 29.5252C29.0713 29.1516 30.6304 28.616 32.4332 27.6817C32.5929 27.6443 32.7526 27.607 32.7526 27.607C33.5511 27.4202 34.1818 27.9559 34.3334 28.6037C34.6067 29.0522 34.7962 29.862 33.8759 30.2481Z" fill="white"/>
</svg>
