<svg width="26" height="26" viewBox="0 0 26 26" fill="none" xmlns="http://www.w3.org/2000/svg">
<path fill-rule="evenodd" clip-rule="evenodd" d="M0.97778 4.62677C0.25753 6.28822 0.0891017 8.06539 0.000455563 9.78142C-0.0172737 11.2246 0.481362 11.814 1.69138 11.8424C3.07205 11.8642 3.83662 11.1438 3.87429 9.81854C3.88852 9.22484 3.93512 8.63233 4.01391 8.04356C4.28206 6.12666 4.96907 4.53507 7.11652 3.96088C8.83626 3.50239 9.90002 3.89538 10.4053 5.35379C10.5761 5.8571 10.6883 6.37785 10.7399 6.90608C10.8371 7.83426 10.8433 8.76532 10.8495 9.69607C10.8527 10.1665 10.8558 10.6368 10.8707 11.1067C10.9084 12.2223 11.7571 12.8467 12.8453 12.5651C13.3661 12.4384 13.8824 12.2834 14.3966 12.1284C16.3667 11.5389 18.3546 11.0848 20.4312 11.5215C22.0379 11.8402 22.4811 12.6721 21.8163 14.1414C21.3132 15.2592 20.5375 16.2002 19.7486 17.1302C19.2743 17.6892 19.0682 18.307 19.2899 19.0209C19.7021 20.3658 21.2334 21.0339 22.0977 20.1606C23.6357 18.6258 24.9167 16.901 25.6724 14.84C26.8292 11.683 24.5 8.02172 21.0318 7.81868C19.2473 7.74424 17.4604 7.89094 15.713 8.25533C14.9794 8.39288 14.647 8.17237 14.6271 7.43443C14.5941 6.65028 14.494 5.87028 14.3279 5.10272C13.6187 1.54402 10.7909 -0.471123 7.16307 0.094339C4.32639 0.537539 2.14126 1.9239 0.97778 4.62677ZM1.39642 20.1367C2.66628 23.3875 4.796 25.5118 8.48811 25.3372C10.8217 25.3262 14.2457 24.6014 16.3134 23.6757C17.1045 23.3177 17.3572 22.595 16.945 21.8374C16.781 21.5383 16.597 21.2501 16.4131 20.9641C15.8989 20.1454 15.4225 19.9816 14.5138 20.3091C12.9204 20.8855 11.296 21.3986 9.59619 21.5689C7.4022 21.7872 6.38942 21.6627 5.29907 19.5406C4.93647 18.7739 4.66647 17.9678 4.49461 17.1391C4.41039 16.7897 4.34169 16.436 4.27299 16.0824C4.02035 14.7986 3.71674 14.5825 2.39591 14.7331C1.07508 14.8838 0.357045 15.8597 0.57866 17.1347C0.75453 18.1585 1.02834 19.1636 1.39642 20.1367Z" fill="#FECF44"/>
</svg>
