<svg width="40" height="40" viewBox="0 0 40 40" fill="none" xmlns="http://www.w3.org/2000/svg">
<path d="M38.8969 13.4723L38.7851 13.4267L38.6922 13.3493C38.3653 13.0756 37.9536 12.9372 37.4662 12.9372H26.4433L26.4091 12.2197C26.3411 10.8065 26.2891 9.39282 26.2375 7.9792C26.1651 6.01287 26.0904 3.98 25.9718 1.98614C25.9 0.793315 25.0009 0.243004 24.1827 0.126088L24.0684 0.10089C23.8393 0.0321498 23.6387 0 23.438 0H13.81C12.7888 0 12.3219 0.574349 12.1103 1.05582L12.036 1.22352L11.8916 1.33947C11.4786 1.67188 11.2721 2.14428 11.2778 2.74353C11.3122 6.38513 11.6938 10.0143 12.0628 13.0842L12.1571 13.866L8.49813 14.129C6.52751 14.2709 4.5576 14.4131 2.58686 14.5516C2.25293 14.5751 1.95466 14.6636 1.676 14.8212L1.5884 14.8709L1.49036 14.8964C0.62669 15.1234 0 15.9096 0 16.765V17.3041C0 17.5967 0.0793216 17.8924 0.236192 18.1836L0.310487 18.3214L0.321721 18.4767C0.530912 21.1045 0.54865 23.7558 0.549141 26.4678C0.549141 27.7656 1.54209 28.1436 1.96944 28.246L2.06177 28.274C2.30613 28.366 2.54962 28.4102 2.8068 28.4102H12.9447L12.9614 29.146C12.9877 30.288 13.027 31.4291 13.0665 32.57C13.129 34.3649 13.1936 36.2209 13.2028 38.0542C13.2094 39.3278 14.1768 39.7164 14.5928 39.8249L14.6834 39.8549C14.9306 39.9524 15.185 40 15.4607 40H24.8131C25.3524 40 25.7958 39.8318 26.1327 39.5L26.2842 39.3529C26.6233 39.0224 26.7953 38.5871 26.7953 38.0576C26.7949 35.2407 26.7749 31.9196 26.6302 28.6569L26.5953 27.8711H37.7424C38.9898 27.8711 39.5258 26.9924 39.6129 26.1702L39.6309 25.9987L39.7229 25.8518C39.9091 25.556 40 25.2287 40 24.8511V15.1484C39.9991 14.1339 39.4007 13.6765 38.8969 13.4723ZM36.0347 23.9873H24.5389C23.0378 23.9873 22.734 25.2036 22.676 25.5767L22.6464 25.6973C22.5684 25.9316 22.5384 26.1684 22.5542 26.4213C22.7631 29.708 22.8075 32.9238 22.8224 35.3578L22.8271 36.1153H17.1409L17.1205 35.3829C17.0946 34.4847 17.0629 33.5856 17.0307 32.6873C16.9676 30.9176 16.9021 29.088 16.8923 27.2809C16.8913 27.1118 16.8678 26.9447 16.8175 26.7542L16.7905 26.6504L16.794 26.5431C16.813 25.9513 16.6142 25.4002 16.2494 25.0307C15.9184 24.6953 15.4681 24.5258 14.9102 24.5258H4.50871L4.50044 23.7811C4.48369 22.1543 4.4216 20.566 4.31658 19.0594L4.26375 18.3112L7.85136 18.0534C9.81951 17.9111 11.787 17.7697 13.7544 17.6312C13.925 17.6189 14.0952 17.5849 14.2888 17.5241L14.4237 17.4819L14.5655 17.49C15.1814 17.5262 15.7363 17.3344 16.0494 16.9865C16.3123 16.6949 16.4126 16.2892 16.348 15.7812C15.8229 11.6535 15.4448 8.18349 15.308 4.66584L15.2772 3.88413H22.107L22.1384 4.60551C22.185 5.68798 22.224 6.77073 22.2631 7.85369C22.3391 9.96669 22.4187 12.152 22.5542 14.2935C22.5629 14.4227 22.5849 14.5545 22.6233 14.7082L22.6462 14.8874C22.6498 15.8498 23.2358 16.8217 24.5375 16.8217H36.0344L36.0347 23.9873Z" fill="white"/>
</svg>
