<svg width="41" height="40" viewBox="0 0 41 40" fill="none" xmlns="http://www.w3.org/2000/svg">
<path fill-rule="evenodd" clip-rule="evenodd" d="M33.0361 40H33.4099H33.5967L39.7651 39.2488C40.1389 39.2488 40.5127 39.061 40.6995 38.8732C40.8865 38.4976 40.8865 38.3098 40.8865 37.7464C40.3222 35.4784 39.8643 33.1034 39.4325 30.8637C39.2923 30.1362 39.1548 29.423 39.0173 28.7324L38.4565 26.1032C37.8959 23.8498 37.5221 21.784 37.1481 19.5306L36.5875 16.1502V15.7746C36.4005 13.8968 36.0267 12.0189 35.6529 10.141L35.6529 10.1408C35.6255 10.0216 35.5976 9.90053 35.5694 9.77773C35.0195 7.38673 34.3171 4.33274 33.7837 0.93896C33.5967 0.37558 33.4099 0 32.6623 0H32.2883C30.4193 0.1878 28.3631 0.1878 26.3071 0.1878H19.2043H13.036H5.93319C5.37245 0.1878 4.99861 0.56338 4.81171 1.12676V1.31456C4.81171 1.59625 4.76498 1.92489 4.71825 2.25352C4.67152 2.58215 4.62479 2.91079 4.62479 3.19248C4.62479 3.47417 4.57806 3.80281 4.53133 4.13145C4.4846 4.46009 4.43787 4.78873 4.43787 5.07042L3.87713 10.7042C3.87713 12.7959 3.55507 14.564 3.20989 16.459C3.18318 16.6056 3.15633 16.753 3.12947 16.9014V17.277C3.03135 17.6713 2.98474 18.1174 2.93556 18.5881C2.89105 19.014 2.84443 19.4601 2.75563 19.9062C2.63278 20.9862 2.50993 22.051 2.38874 23.1014C1.77236 28.4435 1.19889 33.4139 0.886475 38.122C0.886475 38.3098 0.933205 38.4506 0.979935 38.5915C1.02666 38.7323 1.07339 38.8732 1.07339 39.061C1.26031 39.2488 1.63413 39.4366 2.00797 39.4366C9.11077 39.6244 18.6435 39.8122 27.9893 39.8122L33.0361 40ZM6.30703 10.3286V9.76526V9.20188H6.86777C8.36311 9.38968 9.85843 9.57746 11.3538 9.20188H12.8491H13.2229H13.7837C14.064 9.20188 14.3911 9.24883 14.7182 9.29578C15.0453 9.34273 15.3725 9.38968 15.6528 9.38968H16.5874C17.3351 9.57746 18.2697 9.57746 19.3911 9.57746C20.3257 9.57746 21.4473 9.57746 22.5687 9.38968C23.1551 9.38968 23.6903 9.33835 24.2012 9.28936C24.6675 9.24464 25.1134 9.20188 25.5593 9.20188C27.2417 9.20188 29.1109 9.20188 30.7931 9.01408H31.3537V10.3286C31.3537 12.3944 31.3537 14.0845 31.5407 15.9624L31.7277 19.7184V21.5962V22.5352V24.4132C31.7277 25.1644 31.9145 26.1032 32.1015 26.8544L32.1021 26.8568C32.2887 27.6072 32.4753 28.3576 32.4753 29.108C32.4753 29.8592 32.4753 30.6104 32.2883 31.3616C32.1015 31.9248 32.1015 32.8638 32.1015 33.615V33.615C32.1015 34.554 32.1015 35.493 32.2883 36.6198V37.183H27.9893C22.9391 37.183 17.573 37.0773 10.8639 36.9452C8.63369 36.9013 6.25503 36.8545 3.69021 36.8076H3.12947V36.2442C3.69021 30.4226 4.25095 24.9766 4.99863 19.9062L5.18553 19.155C5.74629 15.9624 6.12011 13.3333 6.30703 10.7042V10.3286ZM33.8761 20.1283C33.8266 19.7093 33.7837 19.3459 33.7837 19.155V11.8182L35.0921 20.6572L35.3255 21.9078C35.8085 24.4957 36.2915 27.0835 36.7743 29.6714C36.9798 30.4976 37.1289 31.3236 37.2836 32.181C37.4102 32.8827 37.5406 33.6054 37.7089 34.3662L38.2697 37.3708L34.3445 37.7464V37.183C34.3445 36.7136 34.2977 36.1973 34.251 35.6809C34.2042 35.1644 34.1575 34.6479 34.1575 34.1784C34.1575 33.4272 34.1575 32.676 34.3445 31.9248V31.1738C34.5313 30.6104 34.5313 30.047 34.5313 29.4836C34.5313 28.5446 34.3445 27.6056 34.1575 26.8544C34.1575 26.7605 34.1108 26.6197 34.0641 26.4788C34.0174 26.338 33.9707 26.1971 33.9707 26.1032C33.9707 25.7932 33.914 25.54 33.8631 25.3124C33.8215 25.1265 33.7837 24.9576 33.7837 24.7888C33.7837 24.2597 33.8431 23.7305 33.8949 23.2686C33.935 22.9108 33.9707 22.5933 33.9707 22.3474C34.0942 21.9749 33.9726 20.9458 33.8761 20.1283ZM15.4231 7.0501C14.9573 7.00069 14.4639 6.94836 13.9706 6.94836C13.7837 6.94836 13.4098 6.94836 13.2229 7.13616H11.3538C9.85843 7.13616 8.36311 6.94836 7.05469 6.76056H6.49395L6.68087 6.19718V5.8216V5.25822C6.73838 5.02714 6.77824 4.72886 6.81887 4.42483C6.9036 3.79075 6.99169 3.13162 7.25011 3.0047H13.2229H19.3911H26.6809C27.8023 3.0047 29.4847 3.0047 30.9799 2.8169H31.5407L31.7277 6.94836H31.1669C30.3258 6.94836 29.4846 6.99531 28.6435 7.04226C27.8023 7.08921 26.9612 7.13616 26.1201 7.13616C24.9987 7.13616 24.0641 7.13616 22.9425 7.32394C22.3818 7.32394 21.821 7.37089 21.2603 7.41784C20.6995 7.46479 20.1388 7.51174 19.5781 7.51174C19.2977 7.51174 18.9706 7.46479 18.6435 7.41784C18.3164 7.37089 17.9893 7.32394 17.7089 7.32394C17.3351 7.32394 17.1481 7.32394 16.5874 7.13616C16.2344 7.13616 15.8398 7.0943 15.4231 7.0501ZM24.9195 15.8472C25.4911 16.0532 25.9989 16.3278 26.5069 16.671L27.7767 17.9752C27.9401 18.5645 28.0569 19.2043 28.167 19.8079C28.1851 19.9074 28.2031 20.0059 28.2211 20.103L28.1577 22.3682L28.0307 22.6428L27.3957 24.6334L25.1101 27.3792L19.6497 31.5664C19.1842 31.818 18.6122 31.9543 18.0801 32.081C18.0315 32.0926 17.9833 32.1041 17.9355 32.1156L15.0783 30.1936L11.7767 26.075L10.0624 22.7802L9.49097 20.7894L9.42749 18.7988L9.55447 18.3184C9.80843 17.7692 10.1894 17.22 10.5703 16.671C10.8878 16.3278 11.3322 15.9845 11.7767 15.6413L14.6338 13.6506C14.9512 13.7536 15.2528 13.8394 15.5543 13.9251C15.8559 14.011 16.1576 14.0968 16.4751 14.1998C16.7083 14.3799 16.8541 14.6167 17.0043 14.8607C17.1403 15.0816 17.2798 15.3083 17.4911 15.504C17.745 15.7786 17.9425 16.1752 18.14 16.5719C18.2388 16.7701 18.3375 16.9684 18.4433 17.1514C18.6109 17.3023 18.7047 17.7189 18.8005 18.144C18.9226 18.6855 19.0477 19.2409 19.3323 19.2794L23.1417 15.6413L24.0941 15.504L24.9195 15.8472Z" fill="CurrentColor"/>
</svg>
