<svg width="45" height="45" viewBox="0 0 45 45" fill="none" xmlns="http://www.w3.org/2000/svg">
<g clip-path="url(#clip0_653_10566)">
<path d="M22.5 45C34.9264 45 45 34.9264 45 22.5C45 10.0736 34.9264 0 22.5 0C10.0736 0 0 10.0736 0 22.5C0 34.9264 10.0736 45 22.5 45Z" fill="#FECF44"/>
<path d="M28.1567 23.3808H24.1419V38.0893H18.059V23.3808H15.166V18.2116H18.059V14.8665C18.059 12.4745 19.1953 8.72876 24.196 8.72876L28.7018 8.74761V13.7652H25.4326C24.8963 13.7652 24.1423 14.0331 24.1423 15.1742V18.2164H28.6882L28.1567 23.3808Z" fill="#573C2F"/>
</g>
<defs>
<clipPath id="clip0_653_10566">
<rect width="45" height="45" fill="white"/>
</clipPath>
</defs>
</svg>
