<svg width="41" height="41" viewBox="0 0 41 41" fill="none" xmlns="http://www.w3.org/2000/svg">
<path d="M34.7889 5.67614C34.6512 5.57038 34.4487 5.5 34.1796 5.5C32.24 5.50022 8.04352 5.50604 6.10628 5.57807C5.7509 5.59143 5.51191 5.72401 5.3865 5.89508C5.2937 5.98363 5.24098 6.09922 5.25127 6.24201C5.34735 7.55033 5.58634 6.94255 5.37087 8.24309C5.32016 8.54811 5.57478 8.72539 5.90103 8.78132C6.01976 8.82241 6.16401 8.84325 6.33986 8.82872C8.23387 8.67327 32.3953 8.59309 34.2991 8.51626C34.8205 8.49525 35.0922 8.21879 35.1184 7.93982C35.1387 7.88893 35.1537 7.83488 35.1544 7.77425C35.1632 6.6444 34.9243 7.43093 35.2327 6.31939C35.3148 6.02143 35.0937 5.79439 34.7889 5.67614Z" fill="#615046"/>
<path d="M35.1128 12.5615C34.9877 12.3905 34.7485 12.2579 34.3933 12.2446C32.456 12.1725 8.25943 12.1668 6.32013 12.1665C6.05094 12.1665 5.84837 12.2369 5.71047 12.3427C5.40613 12.4609 5.18472 12.6882 5.2675 12.9861C5.57557 14.0975 5.33692 13.3108 5.34553 14.4409C5.34587 14.5013 5.36083 14.5555 5.38168 14.6063C5.40781 14.8857 5.6794 15.1618 6.20087 15.1827C8.10436 15.2596 32.266 15.3398 34.1598 15.4953C34.336 15.5098 34.4801 15.4887 34.5988 15.4478C34.9253 15.3918 35.18 15.2147 35.1292 14.9096C34.914 13.6092 35.1529 14.2169 35.2489 12.9087C35.2584 12.7657 35.2058 12.6503 35.1128 12.5615Z" fill="#615046"/>
<path d="M34.7889 19.0097C34.6512 18.9039 34.4487 18.8335 34.1796 18.8335C32.24 18.8337 8.04352 18.8395 6.10628 18.9116C5.7509 18.925 5.51191 19.0575 5.3865 19.2286C5.2937 19.3172 5.24098 19.4326 5.25127 19.5755C5.34735 20.8838 5.58634 20.2762 5.37087 21.5767C5.32016 21.8815 5.57478 22.0591 5.90103 22.1148C6.01976 22.156 6.16401 22.1767 6.33986 22.1622C8.23387 22.0068 32.3953 21.9267 34.2991 21.8499C34.8205 21.8288 35.0922 21.5525 35.1184 21.2733C35.1387 21.2225 35.1537 21.1686 35.1544 21.1077C35.1632 19.9778 34.9243 20.7644 35.2327 19.6529C35.3148 19.355 35.0937 19.1279 34.7889 19.0097Z" fill="#615046"/>
<path d="M6.83726 34.9696C6.83726 34.6867 6.89392 34.3979 7.00724 34.1031C7.12596 33.8084 7.27436 33.5049 7.45244 33.1925C7.63053 32.88 7.82479 32.5647 8.03525 32.2464C8.24571 31.9222 8.44538 31.592 8.63425 31.2561C8.68825 31.1618 8.73142 31.0734 8.76375 30.9909C8.79617 30.9025 8.81234 30.814 8.81234 30.7256C8.81234 30.6313 8.78808 30.5546 8.7395 30.4957C8.69092 30.4309 8.62075 30.3984 8.52902 30.3984C8.30777 30.3984 8.09461 30.4515 7.88955 30.5576C7.68448 30.6578 7.48752 30.7934 7.29865 30.9643C7.10978 31.1294 6.92899 31.321 6.75631 31.539C6.58903 31.7571 6.42984 31.984 6.27874 32.2199C6.13304 32.4497 5.99543 32.6796 5.86591 32.9095C5.7364 33.1394 5.61768 33.3486 5.50975 33.5373C5.41262 33.7318 5.32358 33.944 5.24264 34.1739C5.16169 34.4038 5.07265 34.616 4.97551 34.8105C4.88378 35.005 4.77854 35.1671 4.65983 35.2968C4.54111 35.4324 4.39271 35.5001 4.21463 35.5001C4.02036 35.5001 3.86656 35.4324 3.75324 35.2968C3.63991 35.1612 3.58325 34.9991 3.58325 34.8105C3.58325 34.7044 3.61833 34.5393 3.68848 34.3153C3.75864 34.0914 3.84768 33.832 3.9556 33.5373C4.06893 33.2366 4.19574 32.9184 4.33604 32.5824C4.47635 32.2464 4.61396 31.9133 4.74887 31.5832C4.88917 31.2531 5.01869 30.9437 5.1374 30.6549C5.26152 30.3601 5.36405 30.1096 5.44499 29.9033C5.54214 29.6499 5.66894 29.4612 5.82544 29.3375C5.98734 29.2136 6.14653 29.1518 6.30302 29.1518C6.43793 29.1518 6.55665 29.2078 6.65918 29.3198C6.76711 29.4259 6.82107 29.582 6.82107 29.7884C6.82107 29.9416 6.78869 30.1096 6.72394 30.2924C6.86964 30.145 7.02614 29.9858 7.19342 29.8149C7.3607 29.644 7.54149 29.4877 7.73575 29.3463C7.93542 29.1989 8.15667 29.078 8.3995 28.9838C8.64233 28.8895 8.91484 28.8423 9.21709 28.8423C9.36817 28.8423 9.51117 28.863 9.64609 28.9042C9.781 28.9455 9.89967 29.0103 10.0023 29.0987C10.1102 29.1871 10.1965 29.302 10.2613 29.4435C10.3314 29.585 10.3719 29.756 10.3827 29.9564C10.5068 29.8208 10.6417 29.6881 10.7874 29.5585C10.9331 29.4229 11.0896 29.302 11.2569 29.196C11.4296 29.0899 11.6158 29.0044 11.8154 28.9395C12.0151 28.8747 12.2363 28.8423 12.4792 28.8423C12.6573 28.8423 12.8273 28.863 12.9891 28.9042C13.151 28.9455 13.294 29.0162 13.4181 29.1164C13.5477 29.2107 13.6475 29.3345 13.7176 29.4877C13.7932 29.641 13.8309 29.8296 13.8309 30.0536C13.8309 30.4073 13.7554 30.7433 13.6043 31.0615C13.4586 31.3799 13.2859 31.6716 13.0863 31.9369C13.0215 32.0253 12.9352 32.1373 12.8273 32.2729C12.7193 32.4085 12.6141 32.5529 12.5115 32.7061C12.409 32.8594 12.32 33.0185 12.2444 33.1836C12.1688 33.3427 12.1311 33.493 12.1311 33.6345C12.1311 33.7642 12.1662 33.8467 12.2363 33.8821C12.3118 33.9175 12.409 33.9351 12.5278 33.9351C12.7543 33.9351 12.9999 33.8615 13.2643 33.7141C13.5288 33.5667 13.7851 33.3899 14.0333 33.1836C14.2869 32.9714 14.5217 32.7533 14.7375 32.5293C14.9588 32.2995 15.1342 32.1079 15.2637 31.9546C15.2961 31.9133 15.3338 31.8839 15.377 31.8662C15.4202 31.8485 15.4633 31.8396 15.5065 31.8396C15.6037 31.8396 15.69 31.8868 15.7655 31.9811C15.8465 32.0755 15.8869 32.1992 15.8869 32.3525C15.8869 32.4704 15.8546 32.6 15.7898 32.7415C15.7251 32.883 15.6144 33.0215 15.4579 33.157C15.1666 33.4635 14.8671 33.7583 14.5594 34.0412C14.2573 34.3183 13.9497 34.5659 13.6367 34.7839C13.3291 34.9961 13.0188 35.1671 12.7058 35.2968C12.3983 35.4265 12.0906 35.4913 11.783 35.4913C11.3837 35.4913 11.0599 35.3881 10.8117 35.1818C10.5688 34.9755 10.4474 34.6484 10.4474 34.2004C10.4474 33.9056 10.4987 33.6286 10.6013 33.3693C10.7038 33.1099 10.8306 32.8624 10.9817 32.6265C11.1328 32.3849 11.2919 32.152 11.4593 31.928C11.6265 31.704 11.7723 31.4801 11.8963 31.2561C11.9503 31.1618 11.9935 31.0734 12.0258 30.9909C12.0583 30.9025 12.0744 30.814 12.0744 30.7256C12.0744 30.6313 12.0502 30.5546 12.0016 30.4957C11.953 30.4309 11.8828 30.3984 11.7911 30.3984C11.5698 30.3984 11.3568 30.4515 11.1517 30.5576C10.9466 30.6578 10.7496 30.7934 10.5608 30.9643C10.3718 31.1294 10.1911 31.321 10.0184 31.539C9.85117 31.7571 9.69192 31.984 9.54084 32.2199C9.39517 32.4497 9.2575 32.6796 9.128 32.9095C8.9985 33.1394 8.87975 33.3486 8.77184 33.5373C8.67475 33.7318 8.58567 33.944 8.50473 34.1739C8.42379 34.4038 8.33475 34.616 8.23762 34.8105C8.14588 35.005 8.04065 35.1671 7.92193 35.2968C7.80321 35.4324 7.65481 35.5001 7.47673 35.5001C7.41197 35.5001 7.34182 35.4854 7.26627 35.4559C7.19072 35.4324 7.12057 35.397 7.05581 35.3498C6.99645 35.3026 6.94519 35.2466 6.90202 35.1818C6.86424 35.117 6.84265 35.0462 6.83726 34.9696Z" fill="#615046"/>
<path d="M18.2346 30.0537C18.2076 30.0477 18.1833 30.0448 18.1617 30.0448C18.1401 30.0448 18.1159 30.0448 18.0889 30.0448C17.8838 30.0448 17.6922 30.089 17.5142 30.1774C17.3361 30.2658 17.1715 30.3837 17.0204 30.5311C16.8747 30.6726 16.7425 30.8347 16.6238 31.0174C16.5105 31.2002 16.4079 31.3828 16.3162 31.5656C16.2245 31.7424 16.1462 31.9133 16.0815 32.0784C16.022 32.2435 15.9762 32.382 15.9438 32.494C16.1327 32.3879 16.327 32.267 16.5266 32.1315C16.7317 31.9959 16.9233 31.8662 17.1014 31.7424C17.2795 31.6187 17.4332 31.5067 17.5627 31.4064C17.6976 31.3062 17.792 31.2384 17.846 31.2031C18.0889 31.038 18.2562 30.8847 18.3479 30.7433C18.4396 30.5959 18.4855 30.4692 18.4855 30.3631C18.4855 30.2747 18.4585 30.204 18.4045 30.1509C18.356 30.0978 18.2994 30.0654 18.2346 30.0537ZM18.526 28.8335C18.9739 28.8335 19.3085 28.9514 19.5297 29.1872C19.751 29.4229 19.8616 29.7501 19.8616 30.1686C19.8616 30.4162 19.8022 30.6755 19.6835 30.9467C19.5648 31.2178 19.3597 31.4948 19.0683 31.7778C18.777 32.0548 18.3857 32.3407 17.8946 32.6354C17.409 32.9242 16.7991 33.2161 16.0652 33.5107C16.0922 33.6817 16.1759 33.8172 16.3162 33.9175C16.4565 34.0118 16.6426 34.059 16.8747 34.059C17.123 34.059 17.3874 34.0207 17.668 33.944C17.954 33.8615 18.2346 33.7583 18.5098 33.6346C18.7904 33.5107 19.063 33.3782 19.3274 33.2367C19.5918 33.0893 19.8292 32.9508 20.0396 32.8211C20.2555 32.6914 20.4336 32.5794 20.5739 32.4852C20.7196 32.3908 20.8167 32.3319 20.8653 32.3083C20.9139 32.2729 20.957 32.2523 20.9948 32.2464C21.038 32.2405 21.0758 32.2376 21.1081 32.2376C21.1729 32.2376 21.2269 32.2552 21.27 32.2906C21.3132 32.3201 21.3483 32.3584 21.3753 32.4056C21.4076 32.4468 21.4292 32.494 21.44 32.547C21.4508 32.5942 21.4562 32.6354 21.4562 32.6708C21.4562 32.7238 21.4508 32.7887 21.44 32.8653C21.4292 32.9361 21.3888 33.0186 21.3186 33.1129C21.2916 33.1423 21.1999 33.2219 21.0434 33.3517C20.8923 33.4813 20.6953 33.6346 20.4525 33.8114C20.2096 33.9882 19.9264 34.1768 19.6025 34.3772C19.2842 34.5717 18.9442 34.7516 18.5826 34.9166C18.2265 35.0817 17.8541 35.2172 17.4656 35.3233C17.077 35.4353 16.694 35.4913 16.3162 35.4913C15.9924 35.4913 15.7037 35.4235 15.45 35.288C15.2018 35.1524 14.9887 34.9697 14.8106 34.7397C14.6379 34.5099 14.5057 34.2447 14.414 33.944C14.3222 33.6434 14.2764 33.3281 14.2764 32.9979C14.2764 32.7445 14.3222 32.4674 14.414 32.1668C14.5057 31.8603 14.6379 31.5538 14.8106 31.2473C14.9833 30.9407 15.1937 30.6431 15.442 30.3542C15.6956 30.0596 15.9789 29.8002 16.2919 29.5762C16.6049 29.3522 16.9475 29.1724 17.3199 29.0368C17.6976 28.9012 18.0997 28.8335 18.526 28.8335Z" fill="#615046"/>
<path d="M21.8851 29.9033C21.993 29.6499 22.1279 29.4612 22.2899 29.3375C22.4518 29.2136 22.6109 29.1518 22.7674 29.1518C22.8969 29.1518 23.0129 29.2048 23.1155 29.3109C23.218 29.4111 23.2693 29.5615 23.2693 29.7619C23.2693 29.8385 23.2612 29.9209 23.245 30.0094C23.2289 30.0978 23.1991 30.1921 23.1559 30.2924C23.2747 30.1273 23.4447 29.9593 23.6659 29.7884C23.8872 29.6115 24.13 29.4553 24.3944 29.3198C24.6643 29.1783 24.9394 29.0634 25.2201 28.975C25.5061 28.8865 25.7759 28.8423 26.0295 28.8423C26.3155 28.8423 26.5529 28.919 26.7419 29.0722C26.9361 29.2195 27.0333 29.473 27.0333 29.8325C27.0333 30.0448 27.0036 30.2658 26.9442 30.4957C26.8849 30.7256 26.8066 30.9555 26.7094 31.1854C26.6178 31.4152 26.5125 31.6422 26.3938 31.8662C26.2804 32.0843 26.1671 32.2905 26.0538 32.4851C25.9405 32.6796 25.8353 32.8594 25.7381 33.0245C25.6464 33.1836 25.5735 33.3162 25.5196 33.4223C25.4494 33.5166 25.4144 33.6257 25.4144 33.7495C25.4144 33.7966 25.4279 33.8379 25.4549 33.8732C25.4818 33.9086 25.5249 33.9263 25.5844 33.9263C25.6221 33.9263 25.6653 33.9234 25.7139 33.9175C25.7624 33.9056 25.8218 33.8732 25.8919 33.8202C26.1834 33.7023 26.4801 33.555 26.7824 33.3781C27.0899 33.2013 27.384 33.0156 27.6646 32.821C27.9453 32.6207 28.2016 32.4232 28.4336 32.2287C28.671 32.0283 28.868 31.8485 29.0245 31.6894C29.0677 31.648 29.1109 31.6186 29.154 31.601C29.1972 31.5832 29.2377 31.5744 29.2754 31.5744C29.3672 31.5744 29.4374 31.6127 29.4859 31.6894C29.5399 31.766 29.5669 31.8632 29.5669 31.9811C29.5669 32.1639 29.5129 32.3672 29.4049 32.5912C29.3024 32.8152 29.1378 33.0245 28.9112 33.219C28.6036 33.4606 28.3203 33.6817 28.0613 33.8821C27.8076 34.0825 27.5459 34.2711 27.2761 34.448C27.0117 34.6189 26.7257 34.781 26.4181 34.9343C26.1159 35.0816 25.7597 35.2201 25.3496 35.3498C25.2093 35.397 25.0798 35.4324 24.961 35.4559C24.8477 35.4795 24.7425 35.4913 24.6454 35.4913C24.3594 35.4913 24.1489 35.4058 24.014 35.2349C23.8844 35.058 23.8197 34.8135 23.8197 34.501C23.8197 34.4597 23.8197 34.4215 23.8197 34.386C23.8251 34.3448 23.8305 34.3006 23.8359 34.2535C23.8467 34.0707 23.8899 33.8703 23.9654 33.6522C24.0464 33.4341 24.1408 33.2101 24.2487 32.9802C24.362 32.7504 24.4808 32.5234 24.6049 32.2994C24.729 32.0695 24.8424 31.8544 24.9449 31.654C25.0528 31.4476 25.1419 31.265 25.2119 31.1058C25.2821 30.9466 25.3172 30.817 25.3172 30.7167C25.3172 30.6283 25.2929 30.5546 25.2444 30.4957C25.2012 30.4309 25.1338 30.3984 25.042 30.3984C24.6966 30.3984 24.3674 30.5105 24.0544 30.7345C23.7469 30.9585 23.4582 31.2355 23.1884 31.5655C22.9185 31.8898 22.6703 32.2345 22.4436 32.6C22.217 32.9655 22.0174 33.2926 21.8447 33.5815C21.7367 33.776 21.6369 33.9852 21.5452 34.2092C21.4588 34.4273 21.3671 34.6336 21.2699 34.8281C21.1728 35.0168 21.0622 35.173 20.938 35.2968C20.8194 35.4265 20.6683 35.4913 20.4848 35.4913C20.2959 35.4913 20.1475 35.4265 20.0396 35.2968C19.9316 35.1671 19.8777 35.0079 19.8777 34.8193C19.8777 34.7191 19.9154 34.557 19.991 34.333C20.0665 34.109 20.1637 33.8497 20.2824 33.5549C20.4011 33.2602 20.5334 32.9449 20.679 32.6089C20.8301 32.2669 20.9785 31.931 21.1243 31.601C21.2754 31.265 21.4184 30.9495 21.5533 30.6549C21.6882 30.3601 21.7988 30.1096 21.8851 29.9033Z" fill="#615046"/>
<path d="M36.9167 33.1571C36.6793 33.4518 36.4014 33.7407 36.083 34.0236C35.77 34.3007 35.4462 34.5482 35.1117 34.7663C34.7771 34.9844 34.4479 35.1582 34.1242 35.288C33.8003 35.4235 33.5089 35.4913 33.2499 35.4913C32.9909 35.4913 32.7804 35.4117 32.6186 35.2526C32.4567 35.0934 32.3757 34.8223 32.3757 34.4392C32.3757 34.168 32.4189 33.8527 32.5052 33.4931C32.3649 33.723 32.1895 33.9558 31.9791 34.1916C31.7686 34.4273 31.5285 34.6425 31.2587 34.837C30.9888 35.0316 30.6867 35.1877 30.3521 35.3057C30.0175 35.4294 29.6532 35.4913 29.2593 35.4913C29.0812 35.4913 28.9086 35.4707 28.7412 35.4294C28.5793 35.3882 28.4363 35.3174 28.3122 35.2172C28.1882 35.117 28.0883 34.9844 28.0127 34.8193C27.9372 34.6484 27.8994 34.4362 27.8994 34.1827C27.8994 34.1768 27.9102 34.0884 27.9318 33.9175C27.9534 33.7407 28.0208 33.4666 28.1342 33.0952C28.2529 32.718 28.4337 32.2317 28.6765 31.6363C28.9193 31.041 29.262 30.3189 29.7045 29.4701C29.8178 29.2461 29.9473 29.087 30.0931 28.9927C30.2442 28.8924 30.406 28.8423 30.5787 28.8423C30.6542 28.8423 30.7325 28.8542 30.8135 28.8777C30.8944 28.8954 30.9699 28.9278 31.0401 28.975C31.1102 29.0162 31.1669 29.0722 31.2101 29.143C31.2532 29.2078 31.2748 29.2844 31.2748 29.3728C31.2748 29.4317 31.2667 29.4877 31.2506 29.5408C31.2236 29.6411 31.1642 29.7737 31.0725 29.9387C30.9862 30.0978 30.8836 30.2836 30.7649 30.4957C30.6462 30.7021 30.5193 30.9261 30.3844 31.1677C30.2549 31.4094 30.1335 31.6599 30.0202 31.9192C29.9069 32.1786 29.8097 32.4438 29.7288 32.715C29.6478 32.9802 29.602 33.2397 29.5912 33.4931C29.5912 33.5992 29.6182 33.6964 29.6722 33.7848C29.7261 33.8732 29.8152 33.9175 29.9392 33.9175C30.29 33.9175 30.6246 33.8114 30.943 33.5992C31.2613 33.387 31.5555 33.1247 31.8252 32.8122C32.0951 32.494 32.3379 32.1551 32.5538 31.7955C32.7751 31.43 32.9585 31.097 33.1042 30.7963C33.2067 30.5959 33.2957 30.3808 33.3713 30.1509C33.4522 29.921 33.5387 29.7088 33.6303 29.5143C33.7221 29.3198 33.8273 29.1577 33.9461 29.028C34.0647 28.8983 34.2132 28.8335 34.3912 28.8335C34.5855 28.8335 34.7393 28.9012 34.8527 29.0368C34.966 29.1724 35.0227 29.3345 35.0227 29.5232C35.0227 29.6292 34.9848 29.7766 34.9093 29.9652C34.8392 30.148 34.7474 30.3602 34.6341 30.6018C34.5262 30.8377 34.4074 31.0911 34.2779 31.3622C34.1484 31.6334 34.027 31.9104 33.9137 32.1933C33.8057 32.4704 33.714 32.7445 33.6385 33.0157C33.5683 33.2809 33.5332 33.5285 33.5332 33.7583C33.5332 33.9706 33.6519 34.0767 33.8894 34.0767C34.0567 34.0767 34.2644 34.0236 34.5127 33.9175C34.7609 33.8114 35.0199 33.664 35.2897 33.4754C35.565 33.2809 35.8375 33.0539 36.1073 32.7946C36.377 32.5404 36.8857 32.6962 36.9106 33.0659L36.9167 33.1571Z" fill="#615046"/>
</svg>
