<svg width="45" height="45" viewBox="0 0 45 45" fill="none" xmlns="http://www.w3.org/2000/svg">
<g clip-path="url(#clip0_653_10561)">
<rect width="45" height="45" rx="22.5" fill="#573C2F"/>
<path d="M29.2061 11.9722H15.7941C13.6533 11.9722 11.9116 13.7139 11.9116 15.8546V29.2667C11.9116 31.4074 13.6533 33.1496 15.7941 33.1496H29.2061C31.3469 33.1496 33.0891 31.4079 33.0891 29.2667V15.8546C33.0891 13.7139 31.3474 11.9722 29.2061 11.9722ZM22.5001 29.5324C18.6563 29.5324 15.5288 26.405 15.5288 22.5606C15.5288 18.7168 18.6563 15.5894 22.5001 15.5894C26.3444 15.5894 29.4718 18.7168 29.4718 22.5606C29.4718 26.4045 26.3439 29.5324 22.5001 29.5324ZM29.6959 17.0308C28.786 17.0308 28.046 16.2908 28.046 15.3813C28.046 14.4719 28.786 13.7319 29.6959 13.7319C30.6054 13.7319 31.3454 14.4719 31.3454 15.3813C31.3454 16.2908 30.6054 17.0308 29.6959 17.0308Z" fill="#FECF44"/>
<path d="M22.4999 18.5352C20.281 18.5352 18.4741 20.341 18.4741 22.56C18.4741 24.7799 20.281 26.5863 22.4999 26.5863C24.7199 26.5863 26.5253 24.7799 26.5253 22.56C26.5253 20.3415 24.7194 18.5352 22.4999 18.5352Z" fill="#FECF44"/>
<path d="M22.5 0C10.0741 0 0 10.0741 0 22.5C0 34.9259 10.0741 45 22.5 45C34.9259 45 45 34.9259 45 22.5C45 10.0741 34.9259 0 22.5 0ZM36.0344 29.2667C36.0344 33.0323 32.9717 36.0951 29.206 36.0951H15.794C12.0288 36.0951 8.96561 33.0323 8.96561 29.2667V15.8546C8.96561 12.0895 12.0288 9.02627 15.794 9.02627H29.206C32.9717 9.02627 36.0344 12.0895 36.0344 15.8546V29.2667Z" fill="#FECF44"/>
</g>
<defs>
<clipPath id="clip0_653_10561">
<rect width="45" height="45" rx="22.5" fill="white"/>
</clipPath>
</defs>
</svg>
