<svg width="40" height="40" viewBox="0 0 40 40" fill="none" xmlns="http://www.w3.org/2000/svg">
<path d="M31.8745 16.5478C31.8745 15.67 31.3355 15.3168 30.8739 15.2812L30.8407 15.2737C30.7097 15.2246 30.5805 15.2077 30.438 15.2224C24.994 15.786 19.5072 15.8332 14.7914 15.8332C13.8495 15.8332 12.9075 15.8309 11.9653 15.8285C11.2095 15.8268 10.4543 15.825 9.69817 15.8243C9.57092 15.8243 9.44792 15.8509 9.32017 15.9061L9.28292 15.9222L9.24433 15.9128C9.16256 15.8937 9.07898 15.8838 8.99581 15.8838C8.68678 15.8838 8.40645 16.0188 8.22668 16.255C8.0577 16.4777 7.98241 16.7741 8.00345 17.1357L8.37154 23.4461C8.42014 24.2813 8.96036 24.6874 9.47472 24.7197L9.50598 24.7261C9.62042 24.7647 9.72037 24.7828 9.82066 24.7828C17.2935 24.7828 24.0385 24.7601 30.9115 24.4826C31.4141 24.462 31.7883 24.0911 31.9124 23.4902C31.9828 23.285 32.0089 23.0853 31.9973 22.8695C31.884 20.7682 31.8745 18.6798 31.8745 16.5478ZM29.6507 21.8743C23.0851 22.1098 16.3703 22.1317 10.592 22.1338H10.4566L10.2433 18.474L11.8026 18.477C12.7061 18.4791 13.6099 18.4814 14.5134 18.4814C19.0501 18.4814 24.328 18.4399 29.5592 17.9489L29.7145 17.9344L29.7156 18.1253C29.7216 19.299 29.7472 20.4977 29.7912 21.6884L29.798 21.8694L29.6507 21.8743Z" fill="white"/>
</svg>
