<svg width="45" height="45" viewBox="0 0 45 45" fill="none" xmlns="http://www.w3.org/2000/svg">
<g clip-path="url(#clip0_653_10570)">
<path d="M22.5 44.9995C34.9264 44.9995 45 34.9259 45 22.4995C45 10.0731 34.9264 -0.000488281 22.5 -0.000488281C10.0736 -0.000488281 0 10.0731 0 22.4995C0 34.9259 10.0736 44.9995 22.5 44.9995Z" fill="#FECF44"/>
<path d="M35.9434 24.31V33.5863H30.5653V24.9317C30.5653 22.7586 29.7888 21.2746 27.8415 21.2746C26.3555 21.2746 25.4727 22.2737 25.0829 23.2411C24.9413 23.5869 24.9048 24.067 24.9048 24.5519V33.5859H19.5263C19.5263 33.5859 19.5985 18.9279 19.5263 17.4106H24.9052V19.7028C24.8944 19.7208 24.8791 19.7385 24.8695 19.7557H24.9052V19.7028C25.6199 18.603 26.8946 17.0308 29.7523 17.0308C33.2907 17.0308 35.9434 19.3426 35.9434 24.31ZM13.8999 9.61353C12.0601 9.61353 10.8564 10.8212 10.8564 12.4079C10.8564 13.9609 12.0252 15.2034 13.8293 15.2034H13.8642C15.74 15.2034 16.9064 13.9609 16.9064 12.4079C16.8707 10.8212 15.74 9.61353 13.8999 9.61353ZM11.1761 33.5863H16.5526V17.4106H11.1761V33.5863Z" fill="#573C2F"/>
</g>
<defs>
<clipPath id="clip0_653_10570">
<rect width="45" height="45" fill="white"/>
</clipPath>
</defs>
</svg>
