<svg width="378" height="113" viewBox="0 0 378 113" fill="none" xmlns="http://www.w3.org/2000/svg">
<g clip-path="url(#clip0_67_941)">
<g clip-path="url(#clip1_67_941)">
<path d="M154.912 49.6538C155.122 45.5917 155.52 41.3849 157.225 37.4521C159.98 31.054 165.152 27.7723 171.867 26.7232C180.454 25.3847 187.148 30.1548 188.827 38.5787C189.22 40.3956 189.457 42.242 189.535 44.0982C189.582 45.845 190.369 46.3669 192.106 46.0414C196.242 45.1788 200.472 44.8315 204.696 45.0077C212.906 45.4884 218.419 54.1552 215.681 61.6282C213.892 66.5068 210.86 70.5896 207.219 74.2227C205.173 76.2899 201.548 74.7085 200.573 71.525C200.048 69.8351 200.536 68.3725 201.658 67.0495C203.526 64.8479 205.362 62.6205 206.553 59.9744C208.127 56.4963 207.078 54.5273 203.274 53.7728C198.359 52.7391 193.653 53.8141 188.99 55.2095C187.772 55.5764 186.55 55.9433 185.317 56.2431C182.742 56.9098 180.732 55.4317 180.643 52.7908C180.538 49.4781 180.68 46.1551 180.334 42.8475C180.212 41.5971 179.946 40.3644 179.542 39.173C178.346 35.7208 175.827 34.7905 171.757 35.8758C166.673 37.235 165.047 41.0025 164.412 45.5401C164.226 46.9337 164.116 48.3363 164.082 49.7417C163.993 52.8787 162.183 54.5841 158.915 54.5325C156.05 54.4653 154.87 53.0699 154.912 49.6538Z" fill="#FECF44"/>
<path d="M277.415 74.4657C273.779 78.5691 269.509 79.5872 264.709 78.1608C259.752 76.6879 257.024 73.0858 255.99 68.2123C255.239 64.7961 255.643 61.2316 257.139 58.0623C260.911 49.8864 272.352 48.7598 277.179 54.6824C277.252 54.6255 277.383 54.5739 277.389 54.5118C277.556 51.6746 277.551 51.6591 280.536 51.6746C281.958 51.6746 283.857 51.2095 284.675 51.9175C285.63 52.7444 284.964 54.6617 284.974 56.0984C285.006 62.8841 284.974 69.6749 285.016 76.4605C285.016 77.6699 284.78 78.1608 283.442 78.0678C281.812 77.9696 280.178 77.9696 278.548 78.0678C277.562 78.1195 277.289 77.7732 277.389 76.8688C277.473 76.1815 277.415 75.489 277.415 74.4657ZM277.168 64.9255C277.184 64.007 277.014 63.0946 276.67 62.2409C276.325 61.3872 275.813 60.609 275.162 59.9513C274.511 59.2937 273.734 58.7694 272.877 58.4088C272.019 58.0483 271.097 57.8585 270.165 57.8504C266.461 57.8504 263.398 60.9512 263.345 64.7808C263.325 66.6076 264.029 68.3701 265.307 69.6934C266.586 71.0167 268.338 71.7963 270.191 71.8661C273.937 71.9127 277.142 68.7291 277.168 64.9255Z" fill="#573C2F"/>
<path d="M62.4157 55.1731C66.7331 49.3487 76.1443 49.4314 79.806 56.3773C80.2676 55.7571 80.682 55.1628 81.1384 54.5995C85.0256 49.7415 93.4821 49.7105 97.2277 54.5685C98.9326 56.7752 99.4887 59.3903 99.5254 62.0828C99.5988 67.0596 99.5516 72.0365 99.5884 77.0133C99.5884 77.7885 99.3575 78.0469 98.5392 78.0469C94.5103 78.2071 94.5155 78.233 94.5103 74.2329C94.5051 70.2328 94.5628 66.2896 94.4736 62.3464C94.3949 58.8166 92.4277 56.4651 89.2696 55.8398C87.66 55.48 85.9717 55.737 84.5474 56.5586C83.1231 57.3801 82.0694 58.7048 81.6001 60.2637C81.1474 61.6509 80.9259 63.1013 80.9443 64.5583C80.9443 68.6307 80.9443 72.7031 80.9443 76.7756C80.9443 77.711 80.7607 78.0676 79.7063 78.0676C75.8925 78.0676 75.8925 78.1193 75.8925 74.3311C75.8925 70.7651 75.8925 67.194 75.8925 63.6281C75.9099 62.6222 75.8185 61.6174 75.6197 60.6306C74.9272 57.69 72.9128 55.9173 70.1902 55.7003C68.7565 55.6134 67.3284 55.9426 66.0827 56.6472C64.837 57.3517 63.8283 58.4006 63.1816 59.6642C62.5783 60.9405 62.2735 62.3339 62.2898 63.7418C62.2898 68.1139 62.2898 72.4913 62.2898 76.8634C62.2898 77.7368 62.1377 78.0624 61.1409 78.0676C57.3062 78.0676 57.3062 78.1296 57.3062 74.3879C57.3062 67.2457 57.3062 60.1086 57.3062 52.9715C57.3062 51.9379 57.5684 51.5452 58.6544 51.6537C59.7403 51.7622 61.2773 51.3333 62.0537 51.8914C62.8301 52.4496 62.1219 54.0258 62.4157 55.1731Z" fill="#573C2F"/>
<path d="M367.708 67.2614C364.749 67.2614 361.79 67.313 358.832 67.2614C357.588 67.2304 357.615 67.6541 358.04 68.5534C359.577 71.7989 363.868 73.1374 367.839 71.5819C368.944 71.1846 369.957 70.573 370.819 69.7834C371.343 69.2666 371.7 69.158 372.261 69.7834C373.206 70.817 374.234 71.8196 375.267 72.7912C375.792 73.2563 375.849 73.5716 375.367 74.1452C372.041 78.1091 364.749 79.8301 359.01 78.0006C356.372 77.1553 354.063 75.5271 352.401 73.3391C350.739 71.151 349.804 68.51 349.725 65.7781C349.431 59.6798 352.442 54.6307 357.788 52.2689C365.893 48.6874 375.099 52.6203 377.418 60.6256C377.852 62.4341 378.012 64.2956 377.895 66.1502C377.895 67.1063 377.46 67.3079 376.584 67.2975C373.625 67.2355 370.667 67.2614 367.708 67.2614ZM363.925 62.4706C365.609 62.4706 367.299 62.3982 368.977 62.4706C370.268 62.5378 370.457 62.1088 370.027 60.9977C369.119 58.5945 366.795 57.2457 363.632 57.3801C360.788 57.5041 358.386 59.2767 357.772 61.654C357.546 62.5016 358.008 62.4499 358.559 62.4499L363.925 62.4706Z" fill="#573C2F"/>
<path d="M327.687 55.5921C330.247 51.8194 333.625 50.6101 337.764 51.1114C342.113 51.6282 345.329 54.972 346.058 59.7214C346.651 63.5768 346.262 67.4735 346.357 71.3133C346.404 73.2255 346.331 75.1377 346.357 77.0447C346.357 77.8457 346.131 78.0783 345.308 78.0783C343.571 78.0215 341.83 78.0059 340.098 78.0783C339.117 78.1196 338.797 77.8457 338.813 76.838C338.871 72.9671 338.839 69.0859 338.813 65.2254C338.813 64.7706 338.813 64.3158 338.813 63.8662C338.624 60.109 336.662 57.9798 333.452 58.0314C329.953 58.0883 327.681 60.3622 327.645 64.0574C327.582 68.2797 327.597 72.502 327.645 76.7243C327.645 77.7579 327.461 78.1507 326.328 78.0835C324.649 77.9801 322.96 78.0214 321.276 78.0835C320.468 78.0835 320.117 77.9439 320.122 77.0499C320.153 68.9567 320.153 60.8601 320.122 52.76C320.122 51.866 320.437 51.6747 321.265 51.7264C322.997 51.7781 324.738 51.7988 326.469 51.7264C327.45 51.6799 327.718 52.0055 327.634 52.9151C327.629 53.6334 327.687 54.4448 327.687 55.5921Z" fill="#573C2F"/>
<path d="M175.004 86.4764C166.264 86.8898 161.223 81.8613 158.217 74.1661C157.346 71.8628 156.697 69.4836 156.281 67.06C155.757 64.0419 157.456 61.7318 160.583 61.3752C163.709 61.0186 164.428 61.5302 165.026 64.569C165.189 65.4062 165.351 66.2435 165.551 67.0704C165.958 69.0322 166.597 70.9402 167.455 72.7552C170.036 77.7785 172.433 78.0731 177.627 77.5563C181.65 77.1532 185.496 75.9387 189.268 74.5744C191.418 73.7992 192.546 74.1868 193.763 76.1248C194.199 76.8018 194.634 77.484 195.022 78.192C195.998 79.9853 195.4 81.6959 193.527 82.5435C188.633 84.7347 180.528 86.4505 175.004 86.4764Z" fill="#FECF44"/>
<path d="M131.337 66.9977C128.121 66.9977 124.905 67.0391 121.695 66.9977C120.483 66.9977 120.346 67.344 120.687 68.3931C121.088 69.8326 121.911 71.1236 123.054 72.1045C124.196 73.0854 125.606 73.7125 127.108 73.9074C130.566 74.5017 133.771 73.8609 136.116 71.0805C136.913 70.1399 137.532 70.0469 138.487 70.5637C138.576 70.6124 138.669 70.6538 138.765 70.6877C141.65 71.8143 141.666 71.9022 139.536 74.2433C135.607 78.5586 128.987 79.9592 123.41 77.6542C118.059 75.4423 114.87 70.1089 115.253 63.9176C115.609 58.1087 118.353 53.7985 123.992 51.8502C129.38 49.9845 134.484 50.7132 138.681 54.92C141.76 58.0208 142.516 61.9899 142.311 66.2018C142.264 67.1889 141.582 66.9822 141.01 66.9874C137.763 67.0029 134.552 66.9977 131.337 66.9977ZM128.714 62.7289C131.106 62.7289 133.503 62.6566 135.895 62.7548C137.223 62.8064 137.307 62.3258 136.987 61.2715C135.88 57.6539 132.848 55.5608 128.593 55.628C124.548 55.6952 121.642 57.902 120.614 61.6074C120.367 62.5067 120.583 62.7599 121.506 62.7393C123.961 62.6772 126.327 62.7289 128.724 62.7289H128.714Z" fill="#573C2F"/>
<path d="M35.7976 55.3746C35.8615 55.2395 35.9141 55.0995 35.955 54.956C36.0862 53.881 35.4304 52.2221 36.2435 51.8552C37.3662 51.3384 38.9347 51.7001 40.3091 51.6846C41.1747 51.6846 40.9334 52.3151 40.9386 52.7544C40.9386 56.1756 40.9386 59.5917 40.9386 63.0078C40.9386 67.6332 40.9386 72.2535 40.9386 76.8789C40.9386 77.7781 40.7446 78.0727 39.7688 78.0778C35.9917 78.0778 35.9917 78.145 35.934 74.4034C35.934 74.2535 35.934 74.1088 35.9026 73.9641C35.8029 73.9641 35.6665 73.9176 35.6403 73.9641C32.4245 78.1347 28.1543 79.6024 23.0763 78.3362C17.6257 76.946 14.4152 73.2044 13.3293 67.8451C11.8342 60.5013 15.6113 53.8087 22.1897 51.6381C26.3864 50.2737 32.4298 50.8629 35.7976 55.3746ZM26.8796 55.6278C22.069 55.6278 18.1136 59.7054 18.0716 64.7546C18.0297 69.8038 21.9694 74.0571 26.8428 74.0571C29.2842 74.0325 31.6158 73.0542 33.3253 71.3371C35.0349 69.6199 35.9826 67.3044 35.9603 64.8993C35.9708 59.8811 31.8265 55.6485 26.8796 55.6278Z" fill="#573C2F"/>
<path d="M228.628 64.8425C228.628 56.5736 235.726 50.2996 244.255 50.9973C246.09 51.1095 247.885 51.5782 249.535 52.3765C251.185 53.1748 252.659 54.2868 253.871 55.6485C254.595 56.4444 254.469 56.8578 253.604 57.3385C252.977 57.6794 252.389 58.0829 251.846 58.5426C250.272 59.907 248.992 60.5427 246.81 58.9044C243.909 56.7286 239.623 57.8708 237.562 60.646C236.569 62.0622 236.117 63.779 236.286 65.492C236.455 67.2051 237.234 68.804 238.485 70.0054C239.77 71.1784 241.453 71.8383 243.205 71.8564C244.958 71.8746 246.654 71.2498 247.964 70.1036C248.846 69.3439 249.354 69.3439 250.199 70.0157C251.267 70.8721 252.398 71.6495 253.583 72.3413C254.579 72.9201 254.485 73.3749 253.787 74.145C249.958 78.4603 243.715 79.9022 237.834 77.7626C235.118 76.8333 232.767 75.0854 231.114 72.7665C229.462 70.4477 228.592 67.6754 228.628 64.8425Z" fill="#573C2F"/>
<path d="M290.047 52.4446C290.047 47.8244 290.078 43.2041 290.047 38.5839C290.047 37.5503 290.273 37.1679 291.379 37.2299C293.06 37.3255 294.745 37.3255 296.426 37.2299C297.475 37.173 297.659 37.5813 297.654 38.5115C297.619 47.3868 297.601 56.2724 297.601 65.1683C297.574 65.9205 297.622 66.6734 297.743 67.4164C298.267 70.0005 299.6 71.1995 302.281 71.1013C303.854 71.0444 304.19 71.556 304.059 72.9514C303.967 74.3039 303.967 75.661 304.059 77.0135C304.059 77.7732 303.902 78.1143 303.057 78.0471C301.735 77.9489 300.387 78.0471 299.091 77.8714C293.971 77.0807 290.808 73.737 290.273 68.5689C289.748 63.5094 290.152 58.4344 290.037 53.3697C290.042 53.0441 290.047 52.7444 290.047 52.4446Z" fill="#573C2F"/>
<path d="M5.66514 53.0544C5.66514 57.5764 5.66514 62.1036 5.66514 66.6257C5.67553 67.5288 5.74914 68.4302 5.88547 69.3234C6.29465 72.0831 7.81597 73.494 10.6068 73.3906C12.1386 73.3338 12.4481 73.7937 12.3904 75.2098C12.2698 78.1401 12.3537 78.1452 9.37926 78.0212C4.69989 77.8248 1.91955 75.4372 1.02774 70.7859C0.789799 69.5405 0.673856 68.2754 0.681508 67.0081C0.681508 57.5557 0.681508 48.1034 0.681508 38.651C0.681508 37.5812 0.865115 37.1936 2.07168 37.2195C5.66514 37.2866 5.66514 37.2195 5.66514 40.8371V53.0544Z" fill="#573C2F"/>
<path d="M314.871 65.0029C314.871 68.9202 314.829 72.8376 314.897 76.7498C314.897 77.8248 314.598 78.1142 313.533 78.0625C311.807 77.9747 310.071 78.0108 308.34 78.0625C307.616 78.0625 307.38 77.8661 307.38 77.1374C307.408 68.9581 307.408 60.7771 307.38 52.5944C307.38 51.8605 307.616 51.6486 308.34 51.6693C310.123 51.7106 311.912 51.7571 313.69 51.6693C314.808 51.6073 314.897 52.1034 314.887 52.982C314.85 56.9924 314.871 60.9873 314.871 65.0029Z" fill="#573C2F"/>
<path d="M105.563 64.7446C105.563 60.8272 105.595 56.915 105.537 52.9976C105.537 52.0105 105.694 51.6126 106.828 51.6177C110.61 51.6177 110.61 51.6177 110.61 55.3542C110.61 62.3828 110.584 69.4165 110.641 76.445C110.641 77.6285 110.453 78.0988 109.099 78.0626C105.563 77.9696 105.563 78.0626 105.563 74.538V64.7446Z" fill="#573C2F"/>
<path d="M280.945 47.1372L280.368 47.2509C276.539 48.0468 273.848 46.4189 271.865 43.3335C271.219 42.3309 270.642 42.3361 270.002 43.3335C269.792 43.6694 269.41 43.9072 269.21 44.2483C267.369 47.4111 264.489 47.7574 261.053 47.0545C262.443 44.9615 263.985 42.9718 265.15 40.7805C266.383 38.4652 268.014 37.783 270.674 37.7417C273.669 37.69 275.605 38.3877 276.969 41.1009C278.013 43.1888 279.534 45.039 280.945 47.1372Z" fill="#573C2F"/>
<path d="M311.167 46.9664C309.935 47.0126 308.734 46.5756 307.829 45.7512C306.923 44.9268 306.386 43.7822 306.336 42.5684C306.336 40.1291 308.481 38.1239 311.136 38.1343C312.343 38.1016 313.515 38.5352 314.402 39.3425C315.289 40.1498 315.821 41.2667 315.883 42.4547C315.879 43.0575 315.754 43.6534 315.513 44.2078C315.273 44.7622 314.924 45.264 314.485 45.6839C314.046 46.1038 313.526 46.4334 312.957 46.6536C312.387 46.8738 311.779 46.9802 311.167 46.9664Z" fill="#573C2F"/>
<path d="M108.008 38.6614C108.467 38.6349 108.926 38.6995 109.358 38.8514C109.791 39.0033 110.188 39.2393 110.526 39.5455C110.865 39.8516 111.137 40.2217 111.327 40.6336C111.517 41.0454 111.621 41.4908 111.633 41.9431C111.592 42.8306 111.197 43.6662 110.534 44.2682C109.871 44.8702 108.993 45.1899 108.092 45.1576C107.649 45.1797 107.206 45.1135 106.789 44.9629C106.372 44.8123 105.991 44.5804 105.667 44.2812C105.344 43.982 105.085 43.6215 104.906 43.2214C104.727 42.8212 104.632 42.3896 104.626 41.9524C104.62 41.5153 104.704 41.0814 104.873 40.6769C105.041 40.2725 105.291 39.9056 105.607 39.5983C105.922 39.2911 106.298 39.0498 106.71 38.8888C107.123 38.7278 107.564 38.6504 108.008 38.6614Z" fill="#573C2F"/>
</g>
</g>
<defs>
<clipPath id="clip0_67_941">
<rect width="377.251" height="113" fill="white" transform="translate(0.681152)"/>
</clipPath>
<clipPath id="clip1_67_941">
<rect width="377.251" height="60.0002" fill="white" transform="translate(0.681152 26.4999)"/>
</clipPath>
</defs>
</svg>
