<svg width="16" height="6" viewBox="0 0 16 6" fill="none" xmlns="http://www.w3.org/2000/svg">
<path d="M15.4216 0.834574C15.4216 0.283938 15.0847 0.0624274 14.7962 0.0400725L14.7754 0.0353905C14.6936 0.00461399 14.6128 -0.00600072 14.5238 0.00319944C11.1213 0.356739 7.692 0.386307 4.74463 0.386307C4.15597 0.386307 3.56716 0.384893 2.97832 0.383387C2.50593 0.382311 2.03392 0.381195 1.56136 0.380765C1.48182 0.380765 1.40495 0.397444 1.32511 0.432041L1.30182 0.442184L1.27771 0.436294C1.2266 0.424307 1.17437 0.418068 1.12238 0.418068C0.92924 0.418068 0.754032 0.502734 0.641673 0.65093C0.536065 0.790602 0.489006 0.97649 0.502156 1.20332L0.732215 5.16154C0.76259 5.68547 1.10022 5.94017 1.4217 5.96045L1.44124 5.96445C1.51277 5.98863 1.57523 6 1.63792 6C6.30842 6 10.5241 5.98576 14.8197 5.81169C15.1338 5.79878 15.3677 5.56612 15.4453 5.1892C15.4893 5.06052 15.5056 4.93522 15.4983 4.79988C15.4275 3.48184 15.4216 2.1719 15.4216 0.834574ZM14.0317 4.17564C9.92817 4.32338 5.73144 4.33711 2.12002 4.33844H2.03536L1.90206 2.04281L2.87663 2.04465C3.44131 2.04598 4.00617 2.04742 4.57085 2.04742C7.40634 2.04742 10.705 2.02139 13.9745 1.71342L14.0716 1.70431L14.0723 1.82407C14.076 2.56029 14.092 3.31218 14.1195 4.05905L14.1238 4.17257L14.0317 4.17564Z" fill="white"/>
</svg>
