<svg width="20" height="20" viewBox="0 0 20 20" fill="none" xmlns="http://www.w3.org/2000/svg">
<path d="M19.4484 6.73614L19.3926 6.71335L19.3461 6.67464C19.1827 6.53783 18.9768 6.4686 18.7331 6.4686H13.2217L13.2046 6.10985C13.1706 5.40327 13.1446 4.69641 13.1188 3.9896C13.0826 3.00644 13.0452 1.99 12.9859 0.993068C12.95 0.396658 12.5004 0.121502 12.0913 0.0630443L12.0342 0.0504451C11.9197 0.0160749 11.8193 0 11.719 0H6.90501C6.3944 0 6.16097 0.287175 6.05514 0.527911L6.01799 0.611762L5.94581 0.669737C5.73928 0.835941 5.63607 1.07214 5.63888 1.37177C5.65611 3.19257 5.84688 5.00715 6.03139 6.54213L6.07855 6.93299L4.24907 7.06448C3.26376 7.13545 2.2788 7.20655 1.29343 7.27578C1.12647 7.28756 0.97733 7.33183 0.838 7.4106L0.794201 7.43546L0.745179 7.4482C0.313345 7.56169 0 7.95478 0 8.38253V8.65204C0 8.79835 0.0396608 8.94621 0.118096 9.09181L0.155244 9.16068L0.16086 9.23836C0.265456 10.5523 0.274325 11.8779 0.27457 13.2339C0.27457 13.8828 0.771045 14.0718 0.98472 14.123L1.03088 14.137C1.15307 14.183 1.27481 14.2051 1.4034 14.2051H6.47235L6.48071 14.573C6.49387 15.144 6.51348 15.7146 6.53324 16.285C6.56452 17.1825 6.59679 18.1105 6.60142 19.0271C6.60468 19.6639 7.08839 19.8582 7.2964 19.9125L7.34168 19.9275C7.46529 19.9762 7.5925 20 7.73035 20H12.4065C12.6762 20 12.8979 19.9159 13.0663 19.75L13.1421 19.6765C13.3117 19.5112 13.3977 19.2936 13.3977 19.0288C13.3974 17.6203 13.3874 15.9598 13.3151 14.3285L13.2977 13.9356H18.8712C19.4949 13.9356 19.7629 13.4962 19.8064 13.0851L19.8154 12.9993L19.8614 12.9259C19.9546 12.778 20 12.6143 20 12.4256V7.57421C19.9996 7.06695 19.7003 6.83824 19.4484 6.73614ZM18.0173 11.9937H12.2694C11.5189 11.9937 11.367 12.6018 11.338 12.7883L11.3232 12.8487C11.2842 12.9658 11.2692 13.0842 11.2771 13.2107C11.3815 14.854 11.4038 16.4619 11.4112 17.6789L11.4135 18.0577H8.57047L8.56023 17.6915C8.54731 17.2423 8.53145 16.7928 8.51534 16.3437C8.4838 15.4588 8.45105 14.544 8.44617 13.6405C8.44567 13.5559 8.4339 13.4723 8.40877 13.3771L8.39527 13.3252L8.39699 13.2716C8.4065 12.9757 8.30708 12.7001 8.12469 12.5153C7.9592 12.3477 7.73405 12.2629 7.45509 12.2629H2.25435L2.25022 11.8906C2.24184 11.0772 2.2108 10.283 2.15829 9.52968L2.13188 9.15562L3.92568 9.02668C4.90976 8.95557 5.89349 8.88485 6.87722 8.81558C6.96251 8.80945 7.04759 8.79246 7.1444 8.76205L7.21186 8.74095L7.28275 8.74501C7.59072 8.76312 7.86816 8.6672 8.02468 8.49326C8.15613 8.34744 8.20632 8.14459 8.17401 7.89063C7.91146 5.82677 7.72242 4.09175 7.65398 2.33292L7.63861 1.94207H11.0535L11.0692 2.30276C11.0925 2.84399 11.112 3.38537 11.1315 3.92685C11.1695 4.98335 11.2093 6.076 11.2771 7.14675C11.2814 7.21134 11.2924 7.27727 11.3117 7.35413L11.3231 7.44372C11.3249 7.9249 11.6179 8.41086 12.2688 8.41086H18.0172L18.0173 11.9937Z" fill="white"/>
</svg>
