<svg width="40" height="40" viewBox="0 0 40 40" fill="none" xmlns="http://www.w3.org/2000/svg">
<path d="M5 10H8.33333H35" stroke="#573C2F" stroke-width="2" stroke-linecap="round" stroke-linejoin="round"/>
<path d="M31.6663 9.99992V33.3333C31.6663 34.2173 31.3152 35.0652 30.69 35.6903C30.0649 36.3154 29.2171 36.6666 28.333 36.6666H11.6663C10.7823 36.6666 9.93444 36.3154 9.30932 35.6903C8.6842 35.0652 8.33301 34.2173 8.33301 33.3333V9.99992M13.333 9.99992V6.66659C13.333 5.78253 13.6842 4.93468 14.3093 4.30956C14.9344 3.68444 15.7823 3.33325 16.6663 3.33325H23.333C24.2171 3.33325 25.0649 3.68444 25.69 4.30956C26.3152 4.93468 26.6663 5.78253 26.6663 6.66659V9.99992" stroke="#573C2F" stroke-width="2" stroke-linecap="round" stroke-linejoin="round"/>
<path d="M16.667 18.3333V28.3333" stroke="#573C2F" stroke-width="2" stroke-linecap="round" stroke-linejoin="round"/>
<path d="M23.333 18.3333V28.3333" stroke="#573C2F" stroke-width="2" stroke-linecap="round" stroke-linejoin="round"/>
</svg>
